<svg width="374" height="459" viewBox="0 0 374 459" fill="none" xmlns="http://www.w3.org/2000/svg">
<path fill-rule="evenodd" clip-rule="evenodd" d="M378.619 318.71C356.446 353.632 335.446 389.807 299.558 410.388C253.957 436.538 195.059 477.723 150.708 449.407C104.203 419.714 141.536 340.141 114.347 292.135C88.1363 245.858 7.8646 238.04 1.12556 185.304C-5.41069 134.156 44.6459 92.2183 84.6476 59.7294C120.141 30.902 165.982 24.1326 210.805 15.0051C254.67 6.07267 299.698 -8.38291 341.615 7.40206C384.523 23.5599 423.056 57.3345 438.158 100.619C452.329 141.236 428.76 183.257 417.438 224.73C408.287 258.25 397.241 289.381 378.619 318.71Z" fill="url(#paint0_linear)" fill-opacity="0.6"/>
<defs>
<linearGradient id="paint0_linear" x1="67.0718" y1="376.517" x2="382.329" y2="18.6655" gradientUnits="userSpaceOnUse">
<stop stop-color="#0072FF"/>
<stop offset="1" stop-color="#00C6FF"/>
</linearGradient>
</defs>
</svg>
